PathFileType	4	(X/Y/Z)	/Users/itak/Documents/Research/Walk-IL/dataset/trc/00078_00006.trc
DataRate	CameraRate	NumFrames	NumMarkers	Units	OrigDataRate	OrigDataStartFrame	OrigNumFrames
100.000000	100.000000	4	53	mm	100.000000	0	611
Frame#	Time	RPSI			LPSI			L3			STRN			T10			C7			CLAV			RBAK			LBAK			LSHO			LUPA			LAEL			LAOL			LWTS			LWPS			LFRA			LIFD			LHPS			LHTS			RSHO			RUPA			RAEL			RAOL			RWTS			RWPS			RFRA			RIFD			RHTS			RHPS			RBHD			LFHD			RFHD			LBHD			LHIP			RHIP			RASI			LASI			LKNE			LTHI			LANK			LTIP			LTOE			LMT1			LMT5			LHEE			RKNE			RTHI			RANK			RTIP			RTOE			RMT1			RMT5			RHEE			
		X1	Y1	Z1	X2	Y2	Z2	X3	Y3	Z3	X4	Y4	Z4	X5	Y5	Z5	X6	Y6	Z6	X7	Y7	Z7	X8	Y8	Z8	X9	Y9	Z9	X10	Y10	Z10	X11	Y11	Z11	X12	Y12	Z12	X13	Y13	Z13	X14	Y14	Z14	X15	Y15	Z15	X16	Y16	Z16	X17	Y17	Z17	X18	Y18	Z18	X19	Y19	Z19	X20	Y20	Z20	X21	Y21	Z21	X22	Y22	Z22	X23	Y23	Z23	X24	Y24	Z24	X25	Y25	Z25	X26	Y26	Z26	X27	Y27	Z27	X28	Y28	Z28	X29	Y29	Z29	X30	Y30	Z30	X31	Y31	Z31	X32	Y32	Z32	X33	Y33	Z33	X34	Y34	Z34	X35	Y35	Z35	X36	Y36	Z36	X37	Y37	Z37	X38	Y38	Z38	X39	Y39	Z39	X40	Y40	Z40	X41	Y41	Z41	X42	Y42	Z42	X43	Y43	Z43	X44	Y44	Z44	X45	Y45	Z45	X46	Y46	Z46	X47	Y47	Z47	X48	Y48	Z48	X49	Y49	Z49	X50	Y50	Z50	X51	Y51	Z51	X52	Y52	Z52	X53	Y53	Z53	

1	0	-1336.604248046875	1040.232055664062	509.0588989257812	-1352.463012695312	1036.615844726562	333.7419738769531	-1339.967407226562	1085.232299804688	414.729736328125	-1102.147338867188	1289.884399414062	407.093994140625	-1365.1318359375	1216.822021484375	410.6343078613281	-1317.263061523438	1486.203369140625	409.2264099121094	-1134.811279296875	1403.540283203125	406.6506042480469	-1373.175415039062	1344.551025390625	483.6543579101562	-1340.317626953125	1447.607543945312	307.9844360351562	-1238.906860351562	1455.4130859375	232.8549499511719	-1253.64306640625	1328.026733398438	155.2780914306641	-1228.138427734375	1114.021240234375	134.4038848876953	-1287.970947265625	1097.013305664062	221.7213287353516	-1126.792358398438	877.103515625	190.5822601318359	-1189.137817382812	864.0473022460938	135.3049468994141	-1205.14892578125	1005.450012207031	125.3835678100586	-1108.2041015625	689.9414672851562	204.5113983154297	-1154.988647460938	785.3831176757812	136.383056640625	-1101.49560546875	795.8856811523438	184.2161560058594	-1248.91162109375	1449.495971679688	582.8571166992188	-1256.522705078125	1379.069458007812	645.1797485351562	-1274.81591796875	1112.067138671875	668.5942993164062	-1257.848999023438	1092.175170898438	570.387939453125	-1127.830322265625	862.5751953125	623.7734985351562	-1196.158447265625	846.7227783203125	676.5518798828125	-1259.072387695312	1032.933837890625	673.3848876953125	-1120.035888671875	675.6767578125	605.8035888671875	-1102.090698242188	764.0034790039062	622.2681274414062	-1155.720336914062	759.1519165039062	677.47265625	-1277.380126953125	1667.3759765625	339.1994934082031	-1120.086547851562	1701.883178710938	483.6344909667969	-1104.949096679688	1708.5888671875	358.7969360351562	-1285.220458984375	1653.483276367188	476.6641845703125	-1255.451416015625	966.26025390625	240.9743194580078	-1267.000366210938	968.49267578125	583.12109375	-1143.706298828125	980.4180297851562	553.7125244140625	-1139.776000976562	973.4951782226562	284.4596557617188	-1222.110717773438	500.5907592773438	284.8007507324219	-1240.833618164062	643.3333740234375	250.3339691162109	-1325.136596679688	51.90792083740234	274.9019775390625	-1284.678833007812	269.8758850097656	264.8364562988281	-1118.9892578125	46.6584587097168	264.447265625	-1164.697998046875	45.29034423828125	321.8353576660156	-1225.59423828125	44.27410125732422	228.295654296875	-1372.7998046875	49.56900787353516	353.160400390625	-1221.244995117188	518.42529296875	564.1859130859375	-1197.229736328125	789.7877197265625	591.6757202148438	-1302.751708984375	46.70806503295898	566.5844116210938	-1246.158935546875	402.2447814941406	573.0422973632812	-1083.79248046875	43.26376342773438	536.807373046875	-1143.799682617188	48.43260955810547	494.9120788574219	-1178.522338867188	50.13977813720703	585.6268310546875	-1347.3681640625	46.86879348754883	507.8348999023438	
2	0.01	-1336.721313476562	1040.283813476562	508.9635314941406	-1352.471801757812	1036.623657226562	333.6612548828125	-1340.025390625	1085.252319335938	414.645751953125	-1102.18115234375	1289.877075195312	407.12255859375	-1365.210815429688	1216.826538085938	410.5751342773438	-1317.341186523438	1486.191528320312	409.230712890625	-1134.867553710938	1403.54248046875	406.6800842285156	-1373.232788085938	1344.509887695312	483.6197814941406	-1340.368408203125	1447.613647460938	307.9861755371094	-1238.940673828125	1455.404174804688	232.8703155517578	-1253.670654296875	1327.991821289062	155.3223724365234	-1228.244384765625	1113.9267578125	134.6195831298828	-1288.070190429688	1097.023681640625	221.9396362304688	-1127.00244140625	876.9813232421875	191.0663299560547	-1189.25244140625	863.9454345703125	135.7895050048828	-1205.20947265625	1005.363586425781	125.7398986816406	-1108.402221679688	689.9110717773438	205.1579742431641	-1155.177001953125	785.31103515625	136.9225769042969	-1101.641235351562	795.8062744140625	184.7580718994141	-1248.98779296875	1449.471313476562	582.862548828125	-1256.6044921875	1379.041870117188	645.2205810546875	-1274.92626953125	1112.0380859375	668.526611328125	-1257.888916015625	1092.177490234375	570.29541015625	-1128.198852539062	862.4277954101562	623.798095703125	-1196.568481445312	846.673095703125	676.4856567382812	-1259.239624023438	1032.927368164062	673.311279296875	-1120.797729492188	675.42724609375	605.80078125	-1102.403442382812	763.84423828125	622.3017578125	-1156.045654296875	759.035400390625	677.4292602539062	-1277.437255859375	1667.385131835938	339.2255554199219	-1120.171752929688	1701.859375	483.6651611328125	-1105.0615234375	1708.564697265625	358.8284912109375	-1285.273071289062	1653.490600585938	476.7077331542969	-1255.516845703125	966.2745361328125	240.8594055175781	-1267.119262695312	968.4786987304688	583.0521850585938	-1143.796997070312	980.4056396484375	553.7012939453125	-1139.791015625	973.484619140625	284.4374084472656	-1222.17919921875	500.5863037109375	284.7772827148438	-1240.891479492188	643.3369140625	250.2925567626953	-1325.1435546875	51.89765167236328	274.8925170898438	-1284.715209960938	269.8693237304688	264.8157653808594	-1119.001220703125	46.66372299194336	264.4417724609375	-1164.702880859375	45.2972297668457	321.8387756347656	-1225.606323242188	44.27411651611328	228.2884216308594	-1372.80615234375	49.55980682373047	353.162841796875	-1221.334594726562	518.4202880859375	564.1908569335938	-1197.292236328125	789.7947998046875	591.6148681640625	-1302.7626953125	46.71460342407227	566.585693359375	-1246.235595703125	402.2469482421875	573.0252075195312	-1083.783081054688	43.27290344238281	536.804931640625	-1143.794921875	48.44085311889648	494.9084167480469	-1178.509155273438	50.14750289916992	585.6268920898438	-1347.365112304688	46.85054016113281	507.83154296875	
3	0.02	-1336.86865234375	1040.34228515625	508.8600463867188	-1352.485717773438	1036.632568359375	333.5587158203125	-1340.104248046875	1085.278930664062	414.5342712402344	-1102.226196289062	1289.871215820312	407.162109375	-1365.316650390625	1216.837768554688	410.4953918457031	-1317.43212890625	1486.180419921875	409.2352600097656	-1134.936157226562	1403.546020507812	406.7169494628906	-1373.31103515625	1344.462036132812	483.5754089355469	-1340.424926757812	1447.6240234375	307.9852905273438	-1238.97509765625	1455.395751953125	232.8882446289062	-1253.695068359375	1327.94970703125	155.3767242431641	-1228.35693359375	1113.812377929688	134.8965454101562	-1288.198974609375	1097.042114257812	222.2018890380859	-1127.260620117188	876.8394165039062	191.6683349609375	-1189.396362304688	863.8228759765625	136.3909454345703	-1205.274658203125	1005.256530761719	126.1858062744141	-1108.661865234375	689.8712158203125	205.9795684814453	-1155.396484375	785.2158813476562	137.607666015625	-1101.811401367188	795.7130126953125	185.4476928710938	-1249.082763671875	1449.44287109375	582.8692016601562	-1256.720947265625	1379.010131835938	645.2723388671875	-1275.062255859375	1112	668.4440307617188	-1257.93017578125	1092.181518554688	570.1845092773438	-1128.640502929688	862.2478637695312	623.8236694335938	-1197.04638671875	846.6100463867188	676.4186401367188	-1259.440307617188	1032.917602539062	673.2219848632812	-1121.685424804688	675.1304931640625	605.8270263671875	-1102.808227539062	763.6546630859375	622.355712890625	-1156.4609375	758.89306640625	677.3779907226562	-1277.512084960938	1667.39453125	339.2593688964844	-1120.285522460938	1701.837036132812	483.7066650390625	-1105.205078125	1708.539672851562	358.8677978515625	-1285.340087890625	1653.499145507812	476.7587280273438	-1255.596435546875	966.2926025390625	240.7189636230469	-1267.266723632812	968.4655151367188	582.9708251953125	-1143.899658203125	980.3948974609375	553.6893310546875	-1139.810668945312	973.473388671875	284.4120788574219	-1222.26123046875	500.5812683105469	284.7479858398438	-1240.962646484375	643.3401489257812	250.2403717041016	-1325.15283203125	51.88762283325195	274.8794555664062	-1284.7607421875	269.8624267578125	264.7892456054688	-1119.01416015625	46.6700439453125	264.4365539550781	-1164.707275390625	45.30570220947266	321.8405456542969	-1225.619140625	44.27310943603516	228.2805328369141	-1372.817260742188	49.55352020263672	353.1593017578125	-1221.430297851562	518.4171142578125	564.1901245117188	-1197.364624023438	789.8007202148438	591.5397338867188	-1302.77197265625	46.71989822387695	566.5867919921875	-1246.324096679688	402.2469482421875	573.0020141601562	-1083.777099609375	43.27997207641602	536.8037109375	-1143.790893554688	48.44820404052734	494.9054870605469	-1178.49560546875	50.15505218505859	585.62841796875	-1347.359741210938	46.82973098754883	507.8270568847656	
4	0.03	-1337.038940429688	1040.400390625	508.7604675292969	-1352.505859375	1036.641845703125	333.4388427734375	-1340.203002929688	1085.3115234375	414.3985900878906	-1102.282104492188	1289.868530273438	407.2124938964844	-1365.446411132812	1216.856567382812	410.3971862792969	-1317.529296875	1486.171997070312	409.2391357421875	-1135.012573242188	1403.551391601562	406.7598876953125	-1373.4091796875	1344.411865234375	483.5218505859375	-1340.480834960938	1447.639526367188	307.9804077148438	-1239.004638671875	1455.389526367188	232.9075164794922	-1253.710571289062	1327.903198242188	155.4380340576172	-1228.460205078125	1113.685546875	135.2257080078125	-1288.3525390625	1097.069580078125	222.4911804199219	-1127.547241210938	876.6912841796875	192.3640289306641	-1189.563720703125	863.686767578125	137.0810699462891	-1205.339233398438	1005.133728027344	126.70068359375	-1108.97216796875	689.821044921875	206.9483337402344	-1155.621459960938	785.0977783203125	138.4185333251953	-1101.997192382812	795.611328125	186.2603607177734	-1249.192749023438	1449.412963867188	582.8771362304688	-1256.872924804688	1378.976806640625	645.3319091796875	-1275.217163085938	1111.953369140625	668.3513793945312	-1257.968627929688	1092.187133789062	570.0634765625	-1129.124877929688	862.0468139648438	623.8469848632812	-1197.554077148438	846.5365600585938	676.3607788085938	-1259.661499023438	1032.904541015625	673.1224365234375	-1122.609985351562	674.8146362304688	605.8881225585938	-1103.281127929688	763.4503173828125	622.42724609375	-1156.947265625	758.733642578125	677.3250122070312	-1277.603393554688	1667.402587890625	339.301025390625	-1120.42626953125	1701.820434570312	483.7588806152344	-1105.373657226562	1708.516723632812	358.9129638671875	-1285.419921875	1653.508544921875	476.8140258789062	-1255.682861328125	966.3130493164062	240.562744140625	-1267.4345703125	968.4555053710938	582.88232421875	-1144.005981445312	980.3881225585938	553.6773071289062	-1139.83447265625	973.4627075195312	284.3854064941406	-1222.351318359375	500.5760803222656	284.7144165039062	-1241.043334960938	643.3428955078125	250.1792602539062	-1325.163940429688	51.87886428833008	274.8635864257812	-1284.81298828125	269.8561401367188	264.7577209472656	-1119.0263671875	46.67716598510742	264.4322814941406	-1164.7109375	45.31528854370117	321.8398132324219	-1225.631713867188	44.27132415771484	228.2727355957031	-1372.831420898438	49.55005264282227	353.1490478515625	-1221.521118164062	518.4176635742188	564.1819458007812	-1197.442749023438	789.8046264648438	591.455078125	-1302.777709960938	46.7230224609375	566.58740234375	-1246.416137695312	402.24462890625	572.9730834960938	-1083.775512695312	43.28528213500977	536.8046875	-1143.788330078125	48.45338439941406	494.9039306640625	-1178.48388671875	50.16160202026367	585.6315307617188	-1347.352294921875	46.80887222290039	507.8218383789062	
